<svg width="92" height="40" viewBox="0 0 92 40" fill="none" xmlns="http://www.w3.org/2000/svg">
<path d="M75.2125 30.7229C73.5664 30.7229 72.1495 30.3792 70.9618 29.6919C69.781 28.9974 68.8712 28.0166 68.2322 26.7493C67.5932 25.475 67.2737 23.9679 67.2737 22.2281C67.2737 20.5313 67.5932 19.0421 68.2322 17.7606C68.8712 16.4791 69.7706 15.4803 70.9305 14.7644C72.0974 14.0484 73.4657 13.6904 75.0354 13.6904C76.0911 13.6904 77.0739 13.8658 77.9837 14.2167C78.9006 14.5603 79.6993 15.0794 80.38 15.7738C81.0676 16.4683 81.6024 17.3418 81.9844 18.3942C82.3664 19.4395 82.5574 20.6638 82.5574 22.067V23.3235H69.0448V20.4884H78.3796C78.3796 19.8297 78.2407 19.2462 77.9629 18.7379C77.6851 18.2295 77.2996 17.8322 76.8065 17.5458C76.3203 17.2523 75.7542 17.1055 75.1083 17.1055C74.4346 17.1055 73.8372 17.2666 73.3163 17.5888C72.8024 17.9038 72.3995 18.3298 72.1078 18.8667C71.8161 19.3965 71.6668 19.9872 71.6598 20.6387V23.3343C71.6598 24.1504 71.8057 24.8557 72.0974 25.4499C72.396 26.0441 72.8162 26.5023 73.358 26.8245C73.8998 27.1467 74.5422 27.3078 75.2854 27.3078C75.7785 27.3078 76.23 27.2362 76.6398 27.093C77.0496 26.9498 77.4003 26.735 77.692 26.4486C77.9837 26.1623 78.206 25.8114 78.3588 25.3962L82.4636 25.6754C82.2553 26.6921 81.8281 27.5798 81.1822 28.3387C80.5432 29.0905 79.7167 29.6776 78.7026 30.1C77.6955 30.5152 76.5321 30.7229 75.2125 30.7229Z" fill="#1A1A2C"/>
<path d="M41.1602 30.4007V13.9052H45.39V16.8155H45.5775C45.9109 15.849 46.4666 15.0865 47.2445 14.5281C48.0224 13.9696 48.9531 13.6904 50.0366 13.6904C51.134 13.6904 52.0682 13.9732 52.8391 14.5388C53.6101 15.0973 54.1241 15.8562 54.381 16.8155H54.5477C54.8742 15.8705 55.4646 15.1152 56.3189 14.5496C57.1801 13.9768 58.1976 13.6904 59.3714 13.6904C60.8647 13.6904 62.0767 14.1809 63.0074 15.1617C63.9451 16.1354 64.4139 17.5172 64.4139 19.3071V30.4007H59.9861V20.2091C59.9861 19.2927 59.75 18.6054 59.2777 18.1472C58.8054 17.689 58.215 17.4599 57.5066 17.4599C56.7009 17.4599 56.0723 17.7248 55.6208 18.2546C55.1694 18.7772 54.9436 19.4681 54.9436 20.3273V30.4007H50.6409V20.1125C50.6409 19.3035 50.4151 18.6591 49.9637 18.1794C49.5191 17.6997 48.9322 17.4599 48.203 17.4599C47.7098 17.4599 47.2653 17.5888 46.8694 17.8465C46.4805 18.0971 46.1714 18.4515 45.9422 18.9097C45.713 19.3607 45.5984 19.8906 45.5984 20.4991V30.4007H41.1602Z" fill="#1A1A2C"/>
<path d="M31.1714 30.7229C29.5323 30.7229 28.1223 30.3649 26.9416 29.6489C25.7678 28.9258 24.8649 27.9235 24.2328 26.6419C23.6077 25.3604 23.2952 23.8855 23.2952 22.2174C23.2952 20.5277 23.6112 19.0457 24.2432 17.7713C24.8822 16.4898 25.7886 15.491 26.9624 14.7751C28.1362 14.052 29.5323 13.6904 31.1506 13.6904C32.5467 13.6904 33.7691 13.9518 34.8179 14.4744C35.8666 14.997 36.6966 15.7309 37.3079 16.6759C37.9191 17.621 38.2559 18.7307 38.3184 20.0051H34.1303C34.0122 19.1818 33.6996 18.5195 33.1926 18.0183C32.6925 17.51 32.0362 17.2559 31.2235 17.2559C30.5359 17.2559 29.9351 17.4492 29.4212 17.8358C28.9141 18.2152 28.5182 18.7701 28.2335 19.5004C27.9487 20.2306 27.8063 21.1148 27.8063 22.1529C27.8063 23.2054 27.9452 24.1003 28.223 24.8378C28.5078 25.5752 28.9072 26.1372 29.4212 26.5238C29.9351 26.9104 30.5359 27.1037 31.2235 27.1037C31.7306 27.1037 32.1855 26.9963 32.5883 26.7816C32.9981 26.5668 33.335 26.2553 33.5989 25.8472C33.8698 25.432 34.0469 24.9344 34.1303 24.3545H38.3184C38.249 25.6146 37.9156 26.7243 37.3183 27.6837C36.7279 28.6359 35.9118 29.3805 34.87 29.9174C33.8281 30.4544 32.5953 30.7229 31.1714 30.7229Z" fill="#1A1A2C"/>
<path d="M6.50086 30.4006H1.66675L9.03253 8.40662H14.846L22.2013 30.4006H17.3672L12.0226 13.4326H11.8559L6.50086 30.4006ZM6.19873 21.7555H17.6172V25.3854H6.19873V21.7555Z" fill="#1A1A2C"/>
<ellipse cx="86.3328" cy="12.0739" rx="3.66726" ry="3.66726" fill="#5E44FF"/>
</svg>
